<svg width="48" height="9" viewBox="0 0 48 9" fill="none" xmlns="http://www.w3.org/2000/svg">
<path d="M4.91477 2.54545C4.87453 2.14062 4.69579 1.81866 4.37855 1.57955C4.06132 1.34044 3.66241 1.22088 3.18182 1.22088C2.84328 1.22088 2.54498 1.27888 2.28693 1.39489C2.03125 1.51089 1.83002 1.67187 1.68324 1.87784C1.53883 2.08144 1.46662 2.31345 1.46662 2.57386C1.46662 2.76562 1.50805 2.93371 1.59091 3.07812C1.67377 3.22254 1.78504 3.34683 1.92472 3.45099C2.06676 3.55279 2.22301 3.64039 2.39347 3.71378C2.56629 3.78717 2.74029 3.84872 2.91548 3.89844L3.68253 4.11861C3.91454 4.18253 4.14654 4.2642 4.37855 4.36364C4.61056 4.46307 4.82244 4.58854 5.0142 4.74006C5.20833 4.8892 5.3634 5.07268 5.4794 5.29048C5.59777 5.50592 5.65696 5.76515 5.65696 6.06818C5.65696 6.45644 5.55634 6.80563 5.35511 7.11577C5.15388 7.4259 4.86506 7.67211 4.48864 7.8544C4.11222 8.03433 3.66122 8.12429 3.13565 8.12429C2.64086 8.12429 2.21117 8.04261 1.84659 7.87926C1.48201 7.71354 1.19555 7.48509 0.987216 7.19389C0.778883 6.9027 0.661695 6.56534 0.635653 6.18182H1.31747C1.34115 6.46828 1.43584 6.71094 1.60156 6.9098C1.76728 7.10866 1.98272 7.26018 2.24787 7.36435C2.51302 7.46615 2.80895 7.51705 3.13565 7.51705C3.49787 7.51705 3.81984 7.45668 4.10156 7.33594C4.38565 7.21283 4.60819 7.04238 4.76918 6.82457C4.93253 6.6044 5.0142 6.34872 5.0142 6.05753C5.0142 5.81132 4.95028 5.60535 4.82244 5.43963C4.6946 5.27154 4.51586 5.13068 4.28622 5.01705C4.05895 4.90341 3.79498 4.80279 3.49432 4.7152L2.62429 4.45952C2.05374 4.28906 1.61103 4.0535 1.29616 3.75284C0.981297 3.45218 0.823864 3.06866 0.823864 2.60227C0.823864 2.21165 0.92803 1.86837 1.13636 1.57244C1.34706 1.27415 1.63116 1.04214 1.98864 0.87642C2.34848 0.708333 2.75213 0.624289 3.19957 0.624289C3.65175 0.624289 4.05185 0.707149 4.39986 0.872869C4.74787 1.03859 5.02367 1.26705 5.22727 1.55824C5.43324 1.84706 5.54332 2.17614 5.55753 2.54545H4.91477ZM12.1023 0.727273H12.7663V5.54261C12.7663 6.03741 12.6503 6.48011 12.4183 6.87074C12.1863 7.259 11.8632 7.56558 11.4489 7.79048C11.0369 8.01302 10.5575 8.12429 10.0107 8.12429C9.46615 8.12429 8.98674 8.01184 8.57244 7.78693C8.15814 7.56203 7.83499 7.25545 7.60298 6.86719C7.37098 6.47893 7.25497 6.03741 7.25497 5.54261V0.727273H7.91903V5.49645C7.91903 5.88234 8.00545 6.2268 8.17827 6.52983C8.35109 6.83049 8.59375 7.06723 8.90625 7.24006C9.22112 7.41288 9.58925 7.49929 10.0107 7.49929C10.4321 7.49929 10.8002 7.41288 11.1151 7.24006C11.4299 7.06723 11.6726 6.83049 11.843 6.52983C12.0159 6.2268 12.1023 5.88234 12.1023 5.49645V0.727273ZM18.6452 2.54545C18.605 2.14062 18.4263 1.81866 18.109 1.57955C17.7918 1.34044 17.3929 1.22088 16.9123 1.22088C16.5737 1.22088 16.2754 1.27888 16.0174 1.39489C15.7617 1.51089 15.5605 1.67187 15.4137 1.87784C15.2693 2.08144 15.1971 2.31345 15.1971 2.57386C15.1971 2.76562 15.2385 2.93371 15.3214 3.07812C15.4042 3.22254 15.5155 3.34683 15.6552 3.45099C15.7972 3.55279 15.9535 3.64039 16.1239 3.71378C16.2968 3.78717 16.4708 3.84872 16.646 3.89844L17.413 4.11861C17.645 4.18253 17.877 4.2642 18.109 4.36364C18.341 4.46307 18.5529 4.58854 18.7447 4.74006C18.9388 4.8892 19.0939 5.07268 19.2099 5.29048C19.3282 5.50592 19.3874 5.76515 19.3874 6.06818C19.3874 6.45644 19.2868 6.80563 19.0856 7.11577C18.8844 7.4259 18.5955 7.67211 18.2191 7.8544C17.8427 8.03433 17.3917 8.12429 16.8661 8.12429C16.3713 8.12429 15.9416 8.04261 15.5771 7.87926C15.2125 7.71354 14.926 7.48509 14.7177 7.19389C14.5094 6.9027 14.3922 6.56534 14.3661 6.18182H15.0479C15.0716 6.46828 15.1663 6.71094 15.332 6.9098C15.4978 7.10866 15.7132 7.26018 15.9783 7.36435C16.2435 7.46615 16.5394 7.51705 16.8661 7.51705C17.2283 7.51705 17.5503 7.45668 17.832 7.33594C18.1161 7.21283 18.3387 7.04238 18.4996 6.82457C18.663 6.6044 18.7447 6.34872 18.7447 6.05753C18.7447 5.81132 18.6808 5.60535 18.5529 5.43963C18.4251 5.27154 18.2463 5.13068 18.0167 5.01705C17.7894 4.90341 17.5254 4.80279 17.2248 4.7152L16.3548 4.45952C15.7842 4.28906 15.3415 4.0535 15.0266 3.75284C14.7118 3.45218 14.5543 3.06866 14.5543 2.60227C14.5543 2.21165 14.6585 1.86837 14.8668 1.57244C15.0775 1.27415 15.3616 1.04214 15.7191 0.87642C16.079 0.708333 16.4826 0.624289 16.93 0.624289C17.3822 0.624289 17.7823 0.707149 18.1303 0.872869C18.4783 1.03859 18.7541 1.26705 18.9577 1.55824C19.1637 1.84706 19.2738 2.17614 19.288 2.54545H18.6452ZM20.9854 8V0.727273H21.6495V4.06179H25.7759V0.727273H26.44V8H25.7759V4.65838H21.6495V8H20.9854ZM28.3789 8H27.6829L30.3285 0.727273H31.0387L33.6843 8H32.9883L30.7085 1.5902H30.6587L28.3789 8ZM28.8796 5.21236H32.4876V5.80895H28.8796V5.21236ZM40.5948 0.727273V8H39.9485L35.6516 1.9098H35.5948V8H34.9308V0.727273H35.5735L39.8846 6.82457H39.9414V0.727273H40.5948ZM42.0881 1.32386V0.727273H47.3615V1.32386H45.0568V8H44.3928V1.32386H42.0881Z" fill="white"/>
</svg>
