<svg width="1520" height="720" viewBox="0 0 1520 720" fill="none" xmlns="http://www.w3.org/2000/svg">
<mask id="path-1-outside-1_18_4" maskUnits="userSpaceOnUse" x="763" y="467" width="717" height="172" fill="black">
<rect fill="white" x="763" y="467" width="717" height="172"/>
<path d="M787.6 589V614.44C787.6 615.24 788 615.64 788.8 615.64H798.4C799.2 615.64 799.6 615.24 799.6 614.44V571.24L780.64 562.84C779.2 562.36 777.2 561.56 774.64 560.44C772.08 559.16 769.76 557.32 767.68 554.92C765.76 552.52 764.8 549.24 764.8 545.08V490.36C764.8 483.64 766.88 478.28 771.04 474.28C775.2 470.12 780.64 468.04 787.36 468.04H799.84C806.56 468.04 812 470.12 816.16 474.28C820.32 478.28 822.4 483.64 822.4 490.36V525.88L799.6 523.96V491.56C799.6 490.76 799.2 490.36 798.4 490.36H788.8C788 490.36 787.6 490.76 787.6 491.56V541.72L806.56 550.12C808 550.76 810 551.64 812.56 552.76C815.12 553.88 817.36 555.64 819.28 558.04C821.36 560.44 822.4 563.72 822.4 567.88V615.64C822.4 622.36 820.32 627.8 816.16 631.96C812 635.96 806.56 637.96 799.84 637.96H787.36C780.64 637.96 775.2 635.96 771.04 631.96C766.88 627.8 764.8 622.36 764.8 615.64V589H787.6ZM929.266 615.64C929.266 622.36 927.186 627.8 923.026 631.96C918.866 635.96 913.426 637.96 906.706 637.96H891.826C885.106 637.96 879.666 635.96 875.506 631.96C871.346 627.8 869.266 622.36 869.266 615.64V491.32H865.666L868.066 469H892.066V614.44C892.066 615.24 892.466 615.64 893.266 615.64H905.266C906.066 615.64 906.466 615.24 906.466 614.44V469.48H929.266V615.64ZM997.647 589V614.44C997.647 615.24 998.047 615.64 998.847 615.64H1008.45C1009.25 615.64 1009.65 615.24 1009.65 614.44V571.24L990.687 562.84C989.247 562.36 987.247 561.56 984.687 560.44C982.127 559.16 979.807 557.32 977.727 554.92C975.807 552.52 974.847 549.24 974.847 545.08V490.36C974.847 483.64 976.927 478.28 981.087 474.28C985.247 470.12 990.687 468.04 997.407 468.04H1009.89C1016.61 468.04 1022.05 470.12 1026.21 474.28C1030.37 478.28 1032.45 483.64 1032.45 490.36V525.88L1009.65 523.96V491.56C1009.65 490.76 1009.25 490.36 1008.45 490.36H998.847C998.047 490.36 997.647 490.76 997.647 491.56V541.72L1016.61 550.12C1018.05 550.76 1020.05 551.64 1022.61 552.76C1025.17 553.88 1027.41 555.64 1029.33 558.04C1031.41 560.44 1032.45 563.72 1032.45 567.88V615.64C1032.45 622.36 1030.37 627.8 1026.21 631.96C1022.05 635.96 1016.61 637.96 1009.89 637.96H997.407C990.687 637.96 985.247 635.96 981.087 631.96C976.927 627.8 974.847 622.36 974.847 615.64V589H997.647ZM1102.11 469V541.48H1115.79V469H1138.59V637H1115.79V563.8H1102.11V637H1079.31V491.32H1075.71L1078.11 469H1102.11ZM1204.59 637H1181.79L1194.75 491.32H1190.43L1192.83 469H1236.75L1251.63 637H1228.83L1226.19 608.2H1207.23L1204.59 637ZM1209.15 585.88H1224.27L1216.83 502.36L1209.15 585.88ZM1345.12 469H1367.92V637H1345.12L1318.72 534.28V637H1295.92V491.32H1292.32L1294.72 469H1319.92L1346.56 575.8L1345.12 469ZM1412.28 491.32V469H1478.28V491.32H1456.68V637H1433.88V491.32H1412.28Z"/>
</mask>
<path d="M787.6 589V614.44C787.6 615.24 788 615.64 788.8 615.64H798.4C799.2 615.64 799.6 615.24 799.6 614.44V571.24L780.64 562.84C779.2 562.36 777.2 561.56 774.64 560.44C772.08 559.16 769.76 557.32 767.68 554.92C765.76 552.52 764.8 549.24 764.8 545.08V490.36C764.8 483.64 766.88 478.28 771.04 474.28C775.2 470.12 780.64 468.04 787.36 468.04H799.84C806.56 468.04 812 470.12 816.16 474.28C820.32 478.28 822.4 483.64 822.4 490.36V525.88L799.6 523.96V491.56C799.6 490.76 799.2 490.36 798.4 490.36H788.8C788 490.36 787.6 490.76 787.6 491.56V541.72L806.56 550.12C808 550.76 810 551.64 812.56 552.76C815.12 553.88 817.36 555.64 819.28 558.04C821.36 560.44 822.4 563.72 822.4 567.88V615.64C822.4 622.36 820.32 627.8 816.16 631.96C812 635.96 806.56 637.96 799.84 637.96H787.36C780.64 637.96 775.2 635.96 771.04 631.96C766.88 627.8 764.8 622.36 764.8 615.64V589H787.6ZM929.266 615.64C929.266 622.36 927.186 627.8 923.026 631.96C918.866 635.96 913.426 637.96 906.706 637.96H891.826C885.106 637.96 879.666 635.96 875.506 631.96C871.346 627.8 869.266 622.36 869.266 615.64V491.32H865.666L868.066 469H892.066V614.44C892.066 615.24 892.466 615.64 893.266 615.64H905.266C906.066 615.64 906.466 615.24 906.466 614.44V469.48H929.266V615.64ZM997.647 589V614.44C997.647 615.24 998.047 615.64 998.847 615.64H1008.45C1009.25 615.64 1009.65 615.24 1009.65 614.44V571.24L990.687 562.84C989.247 562.36 987.247 561.56 984.687 560.44C982.127 559.16 979.807 557.32 977.727 554.92C975.807 552.52 974.847 549.24 974.847 545.08V490.36C974.847 483.64 976.927 478.28 981.087 474.28C985.247 470.12 990.687 468.04 997.407 468.04H1009.89C1016.61 468.04 1022.05 470.12 1026.21 474.28C1030.37 478.28 1032.45 483.64 1032.45 490.36V525.88L1009.65 523.96V491.56C1009.65 490.76 1009.25 490.36 1008.45 490.36H998.847C998.047 490.36 997.647 490.76 997.647 491.56V541.72L1016.61 550.12C1018.05 550.76 1020.05 551.64 1022.61 552.76C1025.17 553.88 1027.41 555.64 1029.33 558.04C1031.41 560.44 1032.45 563.72 1032.45 567.88V615.64C1032.45 622.36 1030.37 627.8 1026.21 631.96C1022.05 635.96 1016.61 637.96 1009.89 637.96H997.407C990.687 637.96 985.247 635.96 981.087 631.96C976.927 627.8 974.847 622.36 974.847 615.64V589H997.647ZM1102.11 469V541.48H1115.79V469H1138.59V637H1115.79V563.8H1102.11V637H1079.31V491.32H1075.71L1078.11 469H1102.11ZM1204.59 637H1181.79L1194.75 491.32H1190.43L1192.83 469H1236.75L1251.63 637H1228.83L1226.19 608.2H1207.23L1204.59 637ZM1209.15 585.88H1224.27L1216.83 502.36L1209.15 585.88ZM1345.12 469H1367.92V637H1345.12L1318.72 534.28V637H1295.92V491.32H1292.32L1294.72 469H1319.92L1346.56 575.8L1345.12 469ZM1412.28 491.32V469H1478.28V491.32H1456.68V637H1433.88V491.32H1412.28Z" fill="white"/>
<path d="M787.6 589H788.6V588H787.6V589ZM799.6 571.24H800.6V570.589L800.005 570.326L799.6 571.24ZM780.64 562.84L781.045 561.926L781.001 561.906L780.956 561.891L780.64 562.84ZM774.64 560.44L774.193 561.334L774.216 561.346L774.239 561.356L774.64 560.44ZM767.68 554.92L766.899 555.545L766.911 555.56L766.924 555.575L767.68 554.92ZM771.04 474.28L771.733 475.001L771.74 474.994L771.747 474.987L771.04 474.28ZM816.16 474.28L815.453 474.987L815.46 474.994L815.467 475.001L816.16 474.28ZM822.4 525.88L822.316 526.876L823.4 526.968V525.88H822.4ZM799.6 523.96H798.6V524.879L799.516 524.956L799.6 523.96ZM787.6 541.72H786.6V542.371L787.195 542.634L787.6 541.72ZM806.56 550.12L806.966 549.206L806.965 549.206L806.56 550.12ZM819.28 558.04L818.499 558.665L818.511 558.68L818.524 558.695L819.28 558.04ZM816.16 631.96L816.853 632.681L816.86 632.674L816.867 632.667L816.16 631.96ZM771.04 631.96L770.333 632.667L770.34 632.674L770.347 632.681L771.04 631.96ZM764.8 589V588H763.8V589H764.8ZM787.6 589H786.6V614.44H787.6H788.6V589H787.6ZM787.6 614.44H786.6C786.6 614.994 786.739 615.593 787.193 616.047C787.647 616.501 788.246 616.64 788.8 616.64V615.64V614.64C788.554 614.64 788.553 614.579 788.607 614.633C788.661 614.687 788.6 614.686 788.6 614.44H787.6ZM788.8 615.64V616.64H798.4V615.64V614.64H788.8V615.64ZM798.4 615.64V616.64C798.954 616.64 799.553 616.501 800.007 616.047C800.461 615.593 800.6 614.994 800.6 614.44H799.6H798.6C798.6 614.686 798.539 614.687 798.593 614.633C798.647 614.579 798.646 614.64 798.4 614.64V615.64ZM799.6 614.44H800.6V571.24H799.6H798.6V614.44H799.6ZM799.6 571.24L800.005 570.326L781.045 561.926L780.64 562.84L780.235 563.754L799.195 572.154L799.6 571.24ZM780.64 562.84L780.956 561.891C779.559 561.426 777.592 560.64 775.041 559.524L774.64 560.44L774.239 561.356C776.808 562.48 778.841 563.294 780.324 563.789L780.64 562.84ZM774.64 560.44L775.087 559.546C772.657 558.33 770.439 556.577 768.436 554.265L767.68 554.92L766.924 555.575C769.081 558.063 771.503 559.99 774.193 561.334L774.64 560.44ZM767.68 554.92L768.461 554.295C766.726 552.126 765.8 549.093 765.8 545.08H764.8H763.8C763.8 549.387 764.794 552.914 766.899 555.545L767.68 554.92ZM764.8 545.08H765.8V490.36H764.8H763.8V545.08H764.8ZM764.8 490.36H765.8C765.8 483.863 767.802 478.781 771.733 475.001L771.04 474.28L770.347 473.559C765.958 477.779 763.8 483.417 763.8 490.36H764.8ZM771.04 474.28L771.747 474.987C775.692 471.042 780.864 469.04 787.36 469.04V468.04V467.04C780.416 467.04 774.708 469.198 770.333 473.573L771.04 474.28ZM787.36 468.04V469.04H799.84V468.04V467.04H787.36V468.04ZM799.84 468.04V469.04C806.336 469.04 811.508 471.042 815.453 474.987L816.16 474.28L816.867 473.573C812.492 469.198 806.784 467.04 799.84 467.04V468.04ZM816.16 474.28L815.467 475.001C819.398 478.781 821.4 483.863 821.4 490.36H822.4H823.4C823.4 483.417 821.242 477.779 816.853 473.559L816.16 474.28ZM822.4 490.36H821.4V525.88H822.4H823.4V490.36H822.4ZM822.4 525.88L822.484 524.884L799.684 522.964L799.6 523.96L799.516 524.956L822.316 526.876L822.4 525.88ZM799.6 523.96H800.6V491.56H799.6H798.6V523.96H799.6ZM799.6 491.56H800.6C800.6 491.006 800.461 490.407 800.007 489.953C799.553 489.499 798.954 489.36 798.4 489.36V490.36V491.36C798.646 491.36 798.647 491.421 798.593 491.367C798.539 491.313 798.6 491.314 798.6 491.56H799.6ZM798.4 490.36V489.36H788.8V490.36V491.36H798.4V490.36ZM788.8 490.36V489.36C788.246 489.36 787.647 489.499 787.193 489.953C786.739 490.407 786.6 491.006 786.6 491.56H787.6H788.6C788.6 491.314 788.661 491.313 788.607 491.367C788.553 491.421 788.554 491.36 788.8 491.36V490.36ZM787.6 491.56H786.6V541.72H787.6H788.6V491.56H787.6ZM787.6 541.72L787.195 542.634L806.155 551.034L806.56 550.12L806.965 549.206L788.005 540.806L787.6 541.72ZM806.56 550.12L806.154 551.034C807.596 551.675 809.599 552.556 812.159 553.676L812.56 552.76L812.961 551.844C810.401 550.724 808.404 549.845 806.966 549.206L806.56 550.12ZM812.56 552.76L812.159 553.676C814.556 554.725 816.67 556.378 818.499 558.665L819.28 558.04L820.061 557.415C818.05 554.902 815.684 553.035 812.961 551.844L812.56 552.76ZM819.28 558.04L818.524 558.695C820.403 560.863 821.4 563.885 821.4 567.88H822.4H823.4C823.4 563.555 822.317 560.017 820.036 557.385L819.28 558.04ZM822.4 567.88H821.4V615.64H822.4H823.4V567.88H822.4ZM822.4 615.64H821.4C821.4 622.136 819.398 627.308 815.453 631.253L816.16 631.96L816.867 632.667C821.242 628.292 823.4 622.584 823.4 615.64H822.4ZM816.16 631.96L815.467 631.239C811.524 635.031 806.347 636.96 799.84 636.96V637.96V638.96C806.773 638.96 812.476 636.889 816.853 632.681L816.16 631.96ZM799.84 637.96V636.96H787.36V637.96V638.96H799.84V637.96ZM787.36 637.96V636.96C780.853 636.96 775.676 635.031 771.733 631.239L771.04 631.96L770.347 632.681C774.724 636.889 780.427 638.96 787.36 638.96V637.96ZM771.04 631.96L771.747 631.253C767.802 627.308 765.8 622.136 765.8 615.64H764.8H763.8C763.8 622.584 765.958 628.292 770.333 632.667L771.04 631.96ZM764.8 615.64H765.8V589H764.8H763.8V615.64H764.8ZM764.8 589V590H787.6V589V588H764.8V589ZM923.026 631.96L923.719 632.681L923.726 632.674L923.733 632.667L923.026 631.96ZM875.506 631.96L874.799 632.667L874.805 632.674L874.813 632.681L875.506 631.96ZM869.266 491.32H870.266V490.32H869.266V491.32ZM865.666 491.32L864.671 491.213L864.552 492.32H865.666V491.32ZM868.066 469V468H867.167L867.071 468.893L868.066 469ZM892.066 469H893.066V468H892.066V469ZM906.466 469.48V468.48H905.466V469.48H906.466ZM929.266 469.48H930.266V468.48H929.266V469.48ZM929.266 615.64H928.266C928.266 622.136 926.264 627.308 922.319 631.253L923.026 631.96L923.733 632.667C928.107 628.292 930.266 622.584 930.266 615.64H929.266ZM923.026 631.96L922.333 631.239C918.389 635.031 913.213 636.96 906.706 636.96V637.96V638.96C913.638 638.96 919.342 636.889 923.719 632.681L923.026 631.96ZM906.706 637.96V636.96H891.826V637.96V638.96H906.706V637.96ZM891.826 637.96V636.96C885.318 636.96 880.142 635.031 876.199 631.239L875.506 631.96L874.813 632.681C879.189 636.889 884.893 638.96 891.826 638.96V637.96ZM875.506 631.96L876.213 631.253C872.267 627.308 870.266 622.136 870.266 615.64H869.266H868.266C868.266 622.584 870.424 628.292 874.799 632.667L875.506 631.96ZM869.266 615.64H870.266V491.32H869.266H868.266V615.64H869.266ZM869.266 491.32V490.32H865.666V491.32V492.32H869.266V491.32ZM865.666 491.32L866.66 491.427L869.06 469.107L868.066 469L867.071 468.893L864.671 491.213L865.666 491.32ZM868.066 469V470H892.066V469V468H868.066V469ZM892.066 469H891.066V614.44H892.066H893.066V469H892.066ZM892.066 614.44H891.066C891.066 614.994 891.205 615.593 891.659 616.047C892.112 616.501 892.711 616.64 893.266 616.64V615.64V614.64C893.02 614.64 893.019 614.579 893.073 614.633C893.126 614.687 893.066 614.686 893.066 614.44H892.066ZM893.266 615.64V616.64H905.266V615.64V614.64H893.266V615.64ZM905.266 615.64V616.64C905.82 616.64 906.419 616.501 906.873 616.047C907.326 615.593 907.466 614.994 907.466 614.44H906.466H905.466C905.466 614.686 905.405 614.687 905.459 614.633C905.512 614.579 905.511 614.64 905.266 614.64V615.64ZM906.466 614.44H907.466V469.48H906.466H905.466V614.44H906.466ZM906.466 469.48V470.48H929.266V469.48V468.48H906.466V469.48ZM929.266 469.48H928.266V615.64H929.266H930.266V469.48H929.266ZM997.647 589H998.647V588H997.647V589ZM1009.65 571.24H1010.65V570.589L1010.05 570.326L1009.65 571.24ZM990.687 562.84L991.092 561.926L991.048 561.906L991.003 561.891L990.687 562.84ZM984.687 560.44L984.24 561.334L984.263 561.346L984.286 561.356L984.687 560.44ZM977.727 554.92L976.946 555.545L976.958 555.56L976.971 555.575L977.727 554.92ZM981.087 474.28L981.78 475.001L981.787 474.994L981.794 474.987L981.087 474.28ZM1026.21 474.28L1025.5 474.987L1025.51 474.994L1025.51 475.001L1026.21 474.28ZM1032.45 525.88L1032.36 526.876L1033.45 526.968V525.88H1032.45ZM1009.65 523.96H1008.65V524.879L1009.56 524.956L1009.65 523.96ZM997.647 541.72H996.647V542.371L997.242 542.634L997.647 541.72ZM1016.61 550.12L1017.01 549.206L1017.01 549.206L1016.61 550.12ZM1029.33 558.04L1028.55 558.665L1028.56 558.68L1028.57 558.695L1029.33 558.04ZM1026.21 631.96L1026.9 632.681L1026.91 632.674L1026.91 632.667L1026.21 631.96ZM981.087 631.96L980.38 632.667L980.387 632.674L980.394 632.681L981.087 631.96ZM974.847 589V588H973.847V589H974.847ZM997.647 589H996.647V614.44H997.647H998.647V589H997.647ZM997.647 614.44H996.647C996.647 614.994 996.786 615.593 997.24 616.047C997.693 616.501 998.293 616.64 998.847 616.64V615.64V614.64C998.601 614.64 998.6 614.579 998.654 614.633C998.708 614.687 998.647 614.686 998.647 614.44H997.647ZM998.847 615.64V616.64H1008.45V615.64V614.64H998.847V615.64ZM1008.45 615.64V616.64C1009 616.64 1009.6 616.501 1010.05 616.047C1010.51 615.593 1010.65 614.994 1010.65 614.44H1009.65H1008.65C1008.65 614.686 1008.59 614.687 1008.64 614.633C1008.69 614.579 1008.69 614.64 1008.45 614.64V615.64ZM1009.65 614.44H1010.65V571.24H1009.65H1008.65V614.44H1009.65ZM1009.65 571.24L1010.05 570.326L991.092 561.926L990.687 562.84L990.282 563.754L1009.24 572.154L1009.65 571.24ZM990.687 562.84L991.003 561.891C989.606 561.426 987.639 560.64 985.088 559.524L984.687 560.44L984.286 561.356C986.855 562.48 988.887 563.294 990.371 563.789L990.687 562.84ZM984.687 560.44L985.134 559.546C982.704 558.33 980.486 556.577 978.483 554.265L977.727 554.92L976.971 555.575C979.128 558.063 981.55 559.99 984.24 561.334L984.687 560.44ZM977.727 554.92L978.508 554.295C976.773 552.126 975.847 549.093 975.847 545.08H974.847H973.847C973.847 549.387 974.841 552.914 976.946 555.545L977.727 554.92ZM974.847 545.08H975.847V490.36H974.847H973.847V545.08H974.847ZM974.847 490.36H975.847C975.847 483.863 977.849 478.781 981.78 475.001L981.087 474.28L980.394 473.559C976.005 477.779 973.847 483.417 973.847 490.36H974.847ZM981.087 474.28L981.794 474.987C985.739 471.042 990.911 469.04 997.407 469.04V468.04V467.04C990.463 467.04 984.754 469.198 980.38 473.573L981.087 474.28ZM997.407 468.04V469.04H1009.89V468.04V467.04H997.407V468.04ZM1009.89 468.04V469.04C1016.38 469.04 1021.55 471.042 1025.5 474.987L1026.21 474.28L1026.91 473.573C1022.54 469.198 1016.83 467.04 1009.89 467.04V468.04ZM1026.21 474.28L1025.51 475.001C1029.45 478.781 1031.45 483.863 1031.45 490.36H1032.45H1033.45C1033.45 483.417 1031.29 477.779 1026.9 473.559L1026.21 474.28ZM1032.45 490.36H1031.45V525.88H1032.45H1033.45V490.36H1032.45ZM1032.45 525.88L1032.53 524.884L1009.73 522.964L1009.65 523.96L1009.56 524.956L1032.36 526.876L1032.45 525.88ZM1009.65 523.96H1010.65V491.56H1009.65H1008.65V523.96H1009.65ZM1009.65 491.56H1010.65C1010.65 491.006 1010.51 490.407 1010.05 489.953C1009.6 489.499 1009 489.36 1008.45 489.36V490.36V491.36C1008.69 491.36 1008.69 491.421 1008.64 491.367C1008.59 491.313 1008.65 491.314 1008.65 491.56H1009.65ZM1008.45 490.36V489.36H998.847V490.36V491.36H1008.45V490.36ZM998.847 490.36V489.36C998.293 489.36 997.693 489.499 997.24 489.953C996.786 490.407 996.647 491.006 996.647 491.56H997.647H998.647C998.647 491.314 998.708 491.313 998.654 491.367C998.6 491.421 998.601 491.36 998.847 491.36V490.36ZM997.647 491.56H996.647V541.72H997.647H998.647V491.56H997.647ZM997.647 541.72L997.242 542.634L1016.2 551.034L1016.61 550.12L1017.01 549.206L998.052 540.806L997.647 541.72ZM1016.61 550.12L1016.2 551.034C1017.64 551.675 1019.65 552.556 1022.21 553.676L1022.61 552.76L1023.01 551.844C1020.45 550.724 1018.45 549.845 1017.01 549.206L1016.61 550.12ZM1022.61 552.76L1022.21 553.676C1024.6 554.725 1026.72 556.378 1028.55 558.665L1029.33 558.04L1030.11 557.415C1028.1 554.902 1025.73 553.035 1023.01 551.844L1022.61 552.76ZM1029.33 558.04L1028.57 558.695C1030.45 560.863 1031.45 563.885 1031.45 567.88H1032.45H1033.45C1033.45 563.555 1032.36 560.017 1030.08 557.385L1029.33 558.04ZM1032.45 567.88H1031.45V615.64H1032.45H1033.45V567.88H1032.45ZM1032.45 615.64H1031.45C1031.45 622.136 1029.45 627.308 1025.5 631.253L1026.21 631.96L1026.91 632.667C1031.29 628.292 1033.45 622.584 1033.45 615.64H1032.45ZM1026.21 631.96L1025.51 631.239C1021.57 635.031 1016.39 636.96 1009.89 636.96V637.96V638.96C1016.82 638.96 1022.52 636.889 1026.9 632.681L1026.21 631.96ZM1009.89 637.96V636.96H997.407V637.96V638.96H1009.89V637.96ZM997.407 637.96V636.96C990.9 636.96 985.723 635.031 981.78 631.239L981.087 631.96L980.394 632.681C984.771 636.889 990.474 638.96 997.407 638.96V637.96ZM981.087 631.96L981.794 631.253C977.849 627.308 975.847 622.136 975.847 615.64H974.847H973.847C973.847 622.584 976.005 628.292 980.38 632.667L981.087 631.96ZM974.847 615.64H975.847V589H974.847H973.847V615.64H974.847ZM974.847 589V590H997.647V589V588H974.847V589ZM1102.11 469H1103.11V468H1102.11V469ZM1102.11 541.48H1101.11V542.48H1102.11V541.48ZM1115.79 541.48V542.48H1116.79V541.48H1115.79ZM1115.79 469V468H1114.79V469H1115.79ZM1138.59 469H1139.59V468H1138.59V469ZM1138.59 637V638H1139.59V637H1138.59ZM1115.79 637H1114.79V638H1115.79V637ZM1115.79 563.8H1116.79V562.8H1115.79V563.8ZM1102.11 563.8V562.8H1101.11V563.8H1102.11ZM1102.11 637V638H1103.11V637H1102.11ZM1079.31 637H1078.31V638H1079.31V637ZM1079.31 491.32H1080.31V490.32H1079.31V491.32ZM1075.71 491.32L1074.72 491.213L1074.6 492.32H1075.71V491.32ZM1078.11 469V468H1077.21L1077.12 468.893L1078.11 469ZM1102.11 469H1101.11V541.48H1102.11H1103.11V469H1102.11ZM1102.11 541.48V542.48H1115.79V541.48V540.48H1102.11V541.48ZM1115.79 541.48H1116.79V469H1115.79H1114.79V541.48H1115.79ZM1115.79 469V470H1138.59V469V468H1115.79V469ZM1138.59 469H1137.59V637H1138.59H1139.59V469H1138.59ZM1138.59 637V636H1115.79V637V638H1138.59V637ZM1115.79 637H1116.79V563.8H1115.79H1114.79V637H1115.79ZM1115.79 563.8V562.8H1102.11V563.8V564.8H1115.79V563.8ZM1102.11 563.8H1101.11V637H1102.11H1103.11V563.8H1102.11ZM1102.11 637V636H1079.31V637V638H1102.11V637ZM1079.31 637H1080.31V491.32H1079.31H1078.31V637H1079.31ZM1079.31 491.32V490.32H1075.71V491.32V492.32H1079.31V491.32ZM1075.71 491.32L1076.71 491.427L1079.11 469.107L1078.11 469L1077.12 468.893L1074.72 491.213L1075.71 491.32ZM1078.11 469V470H1102.11V469V468H1078.11V469ZM1204.59 637V638H1205.5L1205.59 637.091L1204.59 637ZM1181.79 637L1180.79 636.911L1180.7 638H1181.79V637ZM1194.75 491.32L1195.75 491.409L1195.84 490.32H1194.75V491.32ZM1190.43 491.32L1189.44 491.213L1189.32 492.32H1190.43V491.32ZM1192.83 469V468H1191.93L1191.84 468.893L1192.83 469ZM1236.75 469L1237.75 468.912L1237.67 468H1236.75V469ZM1251.63 637V638H1252.72L1252.63 636.912L1251.63 637ZM1228.83 637L1227.83 637.091L1227.92 638H1228.83V637ZM1226.19 608.2L1227.19 608.109L1227.1 607.2H1226.19V608.2ZM1207.23 608.2V607.2H1206.32L1206.23 608.109L1207.23 608.2ZM1209.15 585.88L1208.15 585.788L1208.05 586.88H1209.15V585.88ZM1224.27 585.88V586.88H1225.36L1225.27 585.791L1224.27 585.88ZM1216.83 502.36L1217.83 502.271L1215.83 502.268L1216.83 502.36ZM1204.59 637V636H1181.79V637V638H1204.59V637ZM1181.79 637L1182.79 637.089L1195.75 491.409L1194.75 491.32L1193.75 491.231L1180.79 636.911L1181.79 637ZM1194.75 491.32V490.32H1190.43V491.32V492.32H1194.75V491.32ZM1190.43 491.32L1191.42 491.427L1193.82 469.107L1192.83 469L1191.84 468.893L1189.44 491.213L1190.43 491.32ZM1192.83 469V470H1236.75V469V468H1192.83V469ZM1236.75 469L1235.75 469.088L1250.63 637.088L1251.63 637L1252.63 636.912L1237.75 468.912L1236.75 469ZM1251.63 637V636H1228.83V637V638H1251.63V637ZM1228.83 637L1229.83 636.909L1227.19 608.109L1226.19 608.2L1225.19 608.291L1227.83 637.091L1228.83 637ZM1226.19 608.2V607.2H1207.23V608.2V609.2H1226.19V608.2ZM1207.23 608.2L1206.23 608.109L1203.59 636.909L1204.59 637L1205.59 637.091L1208.23 608.291L1207.23 608.2ZM1209.15 585.88V586.88H1224.27V585.88V584.88H1209.15V585.88ZM1224.27 585.88L1225.27 585.791L1217.83 502.271L1216.83 502.36L1215.83 502.449L1223.27 585.969L1224.27 585.88ZM1216.83 502.36L1215.83 502.268L1208.15 585.788L1209.15 585.88L1210.15 585.972L1217.83 502.452L1216.83 502.36ZM1345.12 469V468H1344.11L1344.12 469.013L1345.12 469ZM1367.92 469H1368.92V468H1367.92V469ZM1367.92 637V638H1368.92V637H1367.92ZM1345.12 637L1344.15 637.249L1344.35 638H1345.12V637ZM1318.72 534.28L1319.69 534.031L1317.72 534.28H1318.72ZM1318.72 637V638H1319.72V637H1318.72ZM1295.92 637H1294.92V638H1295.92V637ZM1295.92 491.32H1296.92V490.32H1295.92V491.32ZM1292.32 491.32L1291.33 491.213L1291.21 492.32H1292.32V491.32ZM1294.72 469V468H1293.82L1293.73 468.893L1294.72 469ZM1319.92 469L1320.89 468.758L1320.7 468H1319.92V469ZM1346.56 575.8L1345.59 576.042L1347.56 575.787L1346.56 575.8ZM1345.12 469V470H1367.92V469V468H1345.12V469ZM1367.92 469H1366.92V637H1367.92H1368.92V469H1367.92ZM1367.92 637V636H1345.12V637V638H1367.92V637ZM1345.12 637L1346.09 636.751L1319.69 534.031L1318.72 534.28L1317.75 534.529L1344.15 637.249L1345.12 637ZM1318.72 534.28H1317.72V637H1318.72H1319.72V534.28H1318.72ZM1318.72 637V636H1295.92V637V638H1318.72V637ZM1295.92 637H1296.92V491.32H1295.92H1294.92V637H1295.92ZM1295.92 491.32V490.32H1292.32V491.32V492.32H1295.92V491.32ZM1292.32 491.32L1293.32 491.427L1295.72 469.107L1294.72 469L1293.73 468.893L1291.33 491.213L1292.32 491.32ZM1294.72 469V470H1319.92V469V468H1294.72V469ZM1319.92 469L1318.95 469.242L1345.59 576.042L1346.56 575.8L1347.53 575.558L1320.89 468.758L1319.92 469ZM1346.56 575.8L1347.56 575.787L1346.12 468.987L1345.12 469L1344.12 469.013L1345.56 575.813L1346.56 575.8ZM1412.28 491.32H1411.28V492.32H1412.28V491.32ZM1412.28 469V468H1411.28V469H1412.28ZM1478.28 469H1479.28V468H1478.28V469ZM1478.28 491.32V492.32H1479.28V491.32H1478.28ZM1456.68 491.32V490.32H1455.68V491.32H1456.68ZM1456.68 637V638H1457.68V637H1456.68ZM1433.88 637H1432.88V638H1433.88V637ZM1433.88 491.32H1434.88V490.32H1433.88V491.32ZM1412.28 491.32H1413.28V469H1412.28H1411.28V491.32H1412.28ZM1412.28 469V470H1478.28V469V468H1412.28V469ZM1478.28 469H1477.28V491.32H1478.28H1479.28V469H1478.28ZM1478.28 491.32V490.32H1456.68V491.32V492.32H1478.28V491.32ZM1456.68 491.32H1455.68V637H1456.68H1457.68V491.32H1456.68ZM1456.68 637V636H1433.88V637V638H1456.68V637ZM1433.88 637H1434.88V491.32H1433.88H1432.88V637H1433.88ZM1433.88 491.32V490.32H1412.28V491.32V492.32H1433.88V491.32Z" fill="#FF0000" mask="url(#path-1-outside-1_18_4)"/>
</svg>
