<svg width="39" height="16" viewBox="0 0 39 16" fill="none" xmlns="http://www.w3.org/2000/svg">
<path d="M1.46 11V13.06C1.46 13.74 1.80667 14.08 2.5 14.08H2.86C3.55333 14.08 3.9 13.8133 3.9 13.28L3.88 9.3L0.88 7.9C0.56 7.75333 0.4 7.48667 0.4 7.1V2.78C0.4 1.54 1.1 0.919999 2.5 0.919999H3.04C4.32 0.986665 4.96 1.68 4.96 3V5.78L3.9 5.66V3C3.9 2.32 3.55333 1.98 2.86 1.98H2.5C1.80667 1.98 1.46 2.24667 1.46 2.78L1.48 7.06L4.48 8.48C4.8 8.62667 4.96 8.89333 4.96 9.28V13.28C4.96 14.52 4.26 15.14 2.86 15.14H2.32C1.04 15.0733 0.4 14.38 0.4 13.06V11H1.46ZM10.5716 13.06C10.5716 14.4467 9.8249 15.14 8.33156 15.14H8.25156C6.75823 15.14 6.01156 14.4467 6.01156 13.06V2.06H5.65156L5.85156 0.999999H7.07156V13.06C7.07156 13.3933 7.1649 13.6467 7.35156 13.82C7.53823 13.9933 7.83823 14.08 8.25156 14.08H8.33156C8.75823 14.08 9.05823 13.9933 9.23156 13.82C9.41823 13.6467 9.51156 13.3933 9.51156 13.06V0.999999H10.5716V13.06ZM12.6319 11V13.06C12.6319 13.74 12.9785 14.08 13.6719 14.08H14.0319C14.7252 14.08 15.0719 13.8133 15.0719 13.28L15.0519 9.3L12.0519 7.9C11.7319 7.75333 11.5719 7.48667 11.5719 7.1V2.78C11.5719 1.54 12.2719 0.919999 13.6719 0.919999H14.2119C15.4919 0.986665 16.1319 1.68 16.1319 3V5.78L15.0719 5.66V3C15.0719 2.32 14.7252 1.98 14.0319 1.98H13.6719C12.9785 1.98 12.6319 2.24667 12.6319 2.78L12.6519 7.06L15.6519 8.48C15.9719 8.62667 16.1319 8.89333 16.1319 9.28V13.28C16.1319 14.52 15.4319 15.14 14.0319 15.14H13.4919C12.2119 15.0733 11.5719 14.38 11.5719 13.06V11H12.6319ZM18.2434 0.999999V7.46H20.2434V0.999999H21.3034V15H20.2434V8.52H18.2434V15H17.1834V2.06H16.8234L17.0234 0.999999H18.2434ZM22.1969 15L23.3369 2.06H23.0769L23.2769 0.999999H25.7369L26.9769 15H26.0569L25.7969 12.18H23.3769L23.1169 15H22.1969ZM23.4569 11.12H25.7169L24.8969 2.06H24.2769L23.4569 11.12ZM27.8475 15V2.06H27.4875L27.6875 0.999999H29.5275L32.0075 10.98V0.999999H33.0675V15H32.0075L28.9075 2.68V15H27.8475ZM38.5927 0.999999V2.06H36.6727V15H35.6127V2.06H33.6727V0.999999H38.5927Z" fill="white"/>
</svg>
