<svg version="1.1" id="Layer_1" xmlns="http://www.w3.org/2000/svg" xmlns:xlink="http://www.w3.org/1999/xlink" x="0px" y="0px"
	 width="100%" viewBox="0 0 1024 1024" enable-background="new 0 0 1024 1024" xml:space="preserve">
<path fill="#000000" opacity="1.000000" stroke="none" 
	d="
M730.525879,911.405884 
	C722.789490,898.719849 715.252991,886.337769 707.665649,873.987061 
	C704.332336,868.561096 701.694763,862.798279 699.726746,856.780640 
	C694.758850,841.590576 686.360901,828.146240 678.516174,814.414856 
	C678.051147,813.600891 677.629089,812.576477 675.845093,812.337097 
	C673.117615,819.828491 670.225220,827.405029 667.597656,835.072266 
	C663.123413,848.127930 657.089111,860.612976 653.913391,874.157471 
	C651.848511,882.964111 652.147644,891.192444 656.321167,899.341187 
	C658.282654,903.171021 659.876282,907.278564 660.987305,911.433838 
	C662.659119,917.686584 660.494629,920.432434 654.161621,920.300415 
	C647.021118,920.151611 639.947083,922.284546 632.759766,920.615723 
	C625.822693,919.005066 623.089844,916.784729 622.231079,909.835510 
	C620.497742,895.809082 619.445984,881.696289 617.607056,867.685608 
	C615.939514,854.980957 617.964722,842.466064 618.304565,829.859497 
	C618.630554,817.764832 617.313293,805.595886 616.251343,793.500610 
	C614.593933,774.623169 612.450867,755.788818 610.705933,736.918396 
	C610.069275,730.033691 609.825439,729.627502 603.076355,728.271790 
	C586.283325,724.898560 569.556763,721.184998 552.733521,717.974915 
	C536.951538,714.963562 521.031982,714.353821 505.033386,716.406006 
	C500.543732,716.981873 497.760193,718.889832 495.538574,723.091858 
	C480.393097,751.738159 461.035919,777.277039 437.781860,799.854004 
	C432.029541,805.438782 425.784485,810.401489 419.206390,814.986572 
	C406.622437,823.757874 405.037781,828.908508 409.909821,843.379761 
	C415.674896,860.503723 423.204376,876.780457 432.732086,892.147522 
	C435.472992,896.568298 439.008087,900.343384 442.032867,904.521851 
	C447.689056,912.335510 445.844482,917.554688 436.478180,919.762817 
	C431.125244,921.024719 425.648529,921.441711 420.112030,921.197327 
	C412.206543,920.848145 407.277679,916.501587 403.810730,909.814026 
	C392.074768,887.176208 378.930176,865.322327 366.535522,843.050537 
	C360.653473,832.481201 353.261017,822.507385 354.157074,809.009033 
	C347.095520,813.739624 339.522278,817.342834 335.035675,824.680298 
	C332.328583,829.107544 332.578918,834.028076 334.127563,838.708130 
	C341.698700,861.588257 351.048950,883.596313 366.384827,902.566040 
	C366.698822,902.954407 366.987610,903.363647 367.280640,903.768555 
	C373.753418,912.714905 371.609650,918.286926 360.834412,920.125610 
	C355.090332,921.105835 349.311646,921.737305 343.443237,920.827393 
	C337.727356,919.941101 333.573303,917.011719 330.893127,911.974182 
	C316.413635,884.759399 300.919128,858.115112 285.590332,831.378479 
	C279.749023,821.190063 279.824341,810.519104 282.152161,799.433899 
	C284.472473,788.384583 287.721283,777.547058 288.955353,766.241089 
	C290.650879,750.706970 289.472046,735.356995 287.289795,719.993103 
	C284.480438,700.213745 279.093689,680.949951 275.530426,661.344299 
	C268.467804,622.484558 273.072327,585.121826 292.225922,550.066467 
	C293.009674,548.632019 294.158691,547.322632 294.085541,545.391846 
	C292.514069,543.518250 290.021332,543.403320 287.913116,542.615967 
	C233.947556,522.461243 196.156815,485.273621 172.787903,433.049500 
	C161.831512,408.564484 155.669434,382.790192 152.564743,356.150665 
	C147.573242,313.321167 153.025970,271.552673 164.028061,230.208969 
	C169.898865,208.147720 174.950424,185.901764 173.650833,162.823471 
	C173.221512,155.199646 172.164108,147.604050 171.205978,140.019287 
	C170.373947,133.432785 170.914856,126.995140 173.369614,120.878189 
	C177.372360,110.903839 185.318817,105.598839 195.684799,104.964371 
	C205.307327,104.375412 212.056137,109.822945 216.254074,118.239487 
	C222.823090,131.409851 223.162079,145.534531 221.785446,159.742889 
	C219.072876,187.739822 209.536850,214.193481 202.798859,241.270691 
	C194.977707,272.700684 192.107101,304.603424 193.492706,336.812164 
	C196.490845,406.504120 230.952301,456.266052 291.473938,489.113251 
	C303.357056,495.562683 315.677155,501.008606 328.398590,505.589417 
	C331.440063,506.684631 333.995209,506.575043 336.928741,505.054901 
	C360.899109,492.633606 386.684143,490.162720 413.151337,491.244812 
	C438.257935,492.271301 463.204224,495.733826 488.454437,494.885529 
	C523.187439,493.718658 553.915222,482.297729 581.125610,461.074249 
	C609.820496,438.692871 630.306396,409.749481 646.847412,377.741608 
	C647.440430,376.594055 647.786255,375.318787 648.404907,373.687408 
	C640.166138,370.434875 631.158752,371.549194 623.259338,368.117401 
	C628.061035,365.571625 632.670166,368.068817 637.317688,367.997955 
	C638.788452,367.975525 640.261841,368.504700 641.743042,368.718536 
	C650.829773,370.030243 653.008728,368.540558 656.014343,359.742371 
	C656.886841,357.188477 655.616577,356.327606 653.818359,355.635010 
	C648.225830,353.481018 642.576172,351.474518 636.991943,349.299896 
	C635.432922,348.692780 633.235291,348.803864 632.778381,346.230103 
	C634.444885,344.604156 636.192139,345.664551 637.776367,346.218536 
	C643.276978,348.141846 648.856445,349.915009 654.165710,352.283661 
	C657.796997,353.903717 659.554688,353.330170 661.629822,349.817841 
	C680.546997,317.798615 701.132080,286.882599 723.700684,257.307037 
	C726.024475,254.261810 728.381714,251.226181 730.934937,248.375504 
	C735.521484,243.254486 740.036865,243.469345 744.005432,249.341248 
	C748.822632,256.468811 751.294250,264.650482 753.197876,272.950653 
	C754.347656,277.963776 755.269775,283.053650 755.337158,288.237854 
	C755.360535,290.037506 755.626282,291.735443 757.906189,291.733429 
	C766.101013,291.726257 774.007080,293.636871 782.050049,295.775848 
	C783.597595,291.081848 784.934692,286.835541 786.408630,282.637329 
	C787.136353,280.564392 788.125000,278.422974 790.768738,278.461731 
	C793.351318,278.499603 794.424194,280.603394 795.195435,282.647919 
	C796.295410,285.564240 797.165405,288.567352 798.280762,291.983978 
	C801.320251,289.980957 803.768555,287.412903 807.222656,286.523834 
	C809.789429,285.863159 812.232300,285.515594 814.170227,287.670715 
	C816.270081,290.005981 815.169983,292.424622 813.729492,294.536133 
	C811.202820,298.239929 808.476990,301.807861 805.365051,306.076813 
	C812.743286,310.275696 819.559875,315.156006 825.335693,322.098175 
	C830.884705,317.459961 836.258484,313.294464 842.217529,309.988800 
	C849.094910,306.173706 856.185120,302.874725 863.958618,301.389191 
	C871.421509,299.963013 875.168579,303.654602 874.032471,311.182159 
	C867.919495,351.685303 858.812317,391.527435 847.353516,430.834412 
	C846.325073,434.362457 847.195679,435.724335 850.437988,437.116791 
	C857.777466,440.268829 864.915222,443.894287 872.102478,447.393890 
	C873.671326,448.157745 875.491638,448.791779 876.424377,452.244812 
	C870.157288,450.906067 865.843018,447.275543 860.940430,445.214569 
	C855.905823,443.098053 851.102722,440.408081 845.575623,438.941681 
	C843.554688,442.063934 842.911499,445.531555 841.710083,448.760040 
	C840.750916,451.337616 842.842651,452.258942 844.401001,453.458527 
	C851.000916,458.539246 857.626648,463.587616 864.159119,468.753723 
	C865.474243,469.793854 867.479187,470.649750 866.475159,474.573944 
	C857.397095,467.884888 849.485962,460.483124 840.367676,454.862640 
	C838.325989,456.566986 838.006958,458.781616 837.244873,460.739929 
	C833.560608,470.207062 829.731506,479.599823 825.467651,488.836578 
	C822.383362,495.518127 817.328308,497.871155 810.485474,498.349762 
	C796.209534,499.348297 782.272095,497.296448 768.439148,494.154572 
	C758.466187,491.889374 758.555725,491.831360 756.172485,501.537781 
	C751.198547,521.795776 749.312927,542.487610 747.291260,563.169617 
	C743.809814,598.783936 740.042053,634.353394 727.648682,668.303772 
	C726.595764,671.188171 726.605835,673.989197 726.943604,677.076721 
	C728.606201,692.276978 729.861511,707.521240 731.352295,722.740967 
	C733.167297,741.270142 735.094788,759.788147 736.934082,778.314941 
	C738.428162,793.364380 739.669739,808.441772 741.379822,823.466187 
	C743.126648,838.814026 742.866333,854.367249 746.293579,869.545593 
	C748.268799,878.293640 752.024597,885.733948 759.494568,891.163330 
	C763.386597,893.992249 766.966370,897.343750 769.743896,901.345398 
	C772.457764,905.255493 771.785645,908.129211 767.617920,910.424377 
	C762.659668,913.154724 757.643555,915.797241 752.539429,918.241638 
	C741.614136,923.473938 737.099426,922.067871 730.525879,911.405884 
M747.696228,408.168457 
	C747.985229,400.356079 742.535828,395.927124 737.596741,391.275391 
	C732.072327,386.072479 728.578857,385.778473 723.513794,391.265686 
	C718.234192,396.985138 711.843323,397.063416 705.580688,395.360992 
	C695.601013,392.648071 686.481934,395.115723 677.291321,398.183167 
	C674.513123,399.110382 672.867249,401.313751 673.103455,404.321564 
	C673.662415,411.438110 672.070984,418.179291 670.170532,424.949951 
	C668.529968,430.795319 668.960083,436.769714 669.544678,442.794922 
	C669.975891,447.239380 672.048218,450.214874 675.417419,452.660797 
	C682.838745,458.048370 690.551270,463.007263 698.708252,467.174377 
	C710.044800,472.965759 720.354126,470.646362 728.023987,460.826324 
	C730.766846,457.314362 734.227905,454.889526 738.131714,452.888397 
	C740.785278,451.528168 743.485962,450.115845 745.803284,448.271606 
	C751.659180,443.611176 752.236328,437.232635 747.649292,431.471039 
	C746.822205,430.432159 745.979126,429.362427 745.394348,428.182617 
	C743.745789,424.856567 741.563721,423.986542 737.716187,424.826752 
	C729.626343,426.593414 722.596008,423.970856 716.990967,417.858490 
	C715.732300,416.485931 714.269043,414.964081 715.338318,412.109039 
	C720.501526,416.928680 725.555725,421.540588 732.887512,420.582825 
	C739.995728,419.654236 745.425720,416.284515 747.696228,408.168457 
M377.337036,782.055969 
	C379.765411,780.534058 381.684540,778.468567 383.585785,776.355896 
	C392.073853,766.923828 399.492981,756.681030 406.416534,746.080627 
	C408.254944,743.265930 410.481110,741.609192 413.708679,740.561218 
	C421.852905,737.916870 430.274109,736.003113 436.131500,728.532288 
	C439.301208,724.489441 440.203674,720.810425 438.922058,716.141174 
	C437.983215,712.720886 435.856781,711.499084 432.545380,712.468872 
	C429.289581,713.422363 426.651123,715.114136 424.605072,718.081177 
	C421.607086,722.428833 418.827759,727.100891 414.225769,730.382019 
	C413.293976,728.510193 414.250153,727.585083 414.614258,726.530762 
	C415.138855,725.011658 416.344788,723.428772 414.699371,721.948608 
	C413.320862,720.708435 411.597443,720.891907 409.957092,721.347839 
	C409.003265,721.612915 408.069611,722.019531 407.194519,722.488586 
	C393.531342,729.812500 382.821716,740.140625 375.512970,753.869080 
	C372.057831,760.359070 369.182312,767.093689 367.881989,774.384460 
	C366.470642,782.297974 369.102631,784.662354 377.337036,782.055969 
M812.172546,365.327026 
	C814.527649,364.151520 817.849854,364.858215 819.696472,361.378510 
	C812.135437,356.819702 804.893799,358.139404 797.834229,361.463257 
	C787.451355,366.351776 782.223999,376.102539 783.230713,387.978424 
	C784.257812,400.094879 794.872559,411.390472 805.476013,413.033905 
	C794.381592,401.887665 791.389587,392.718872 795.857361,383.558136 
	C807.028198,383.995087 810.810791,379.061188 807.777161,367.975800 
	C808.659180,366.650574 810.174622,366.300476 812.172546,365.327026 
M707.043152,330.538605 
	C698.771057,339.554474 697.102844,350.057251 702.217346,360.921051 
	C705.906494,368.757233 712.534912,374.359497 718.475037,374.004089 
	C711.321777,366.126495 708.636292,357.407715 711.598267,347.326447 
	C722.147400,348.670258 728.813354,342.134247 723.894531,332.104095 
	C724.239563,331.016205 725.267761,330.728394 726.106323,330.228363 
	C728.166138,329.000061 731.147156,328.331787 729.850159,324.873779 
	C728.558655,321.430084 725.556641,322.254608 723.030090,322.640991 
	C717.158997,323.538910 711.828857,325.728638 707.043152,330.538605 
M737.074646,295.542511 
	C742.004456,292.147705 740.198730,287.347748 739.823608,282.806915 
	C738.566833,282.190552 737.256653,283.935791 736.117920,282.563507 
	C733.491333,279.398163 730.893555,280.964996 728.202271,282.562256 
	C720.007874,287.425568 716.281067,294.973145 714.657593,304.997772 
	C722.782104,302.870300 730.077393,300.578064 737.074646,295.542511 
M769.921631,409.726868 
	C763.483826,404.828644 757.918030,404.397675 752.815002,408.402313 
	C748.442078,411.833984 747.164734,418.365356 749.791443,423.768341 
	C751.476074,427.233276 753.583801,428.572662 757.188477,425.884705 
	C759.832886,423.912781 762.761597,422.296936 765.659363,420.695709 
	C769.838928,418.386322 771.586548,415.092010 769.921631,409.726868 
M849.289612,340.497711 
	C848.775024,338.914520 848.247009,337.335541 847.748352,335.747314 
	C846.458801,331.640045 843.765198,331.350891 839.900879,332.082367 
	C835.763733,332.865448 834.591858,334.999573 835.209167,338.674957 
	C836.607300,346.999146 839.865906,354.591003 844.552429,361.576691 
	C844.857056,362.030701 845.651794,362.155945 846.160950,362.405884 
	C849.174561,359.030182 850.589172,349.734985 849.289612,340.497711 
M688.681091,747.323425 
	C688.149048,750.230408 687.491333,753.147278 689.098267,755.946838 
	C695.576416,753.891541 700.008972,740.265930 696.282776,733.831787 
	C690.523621,736.174927 690.540161,741.861145 688.681091,747.323425 
z"/>
</svg>