<svg width="19" height="12" viewBox="0 0 19 12" fill="none" xmlns="http://www.w3.org/2000/svg">
<path d="M0 1.552L0.16 0.0640004H2.688C3.136 0.0640004 3.49867 0.202667 3.776 0.480001C4.05333 0.746667 4.192 1.104 4.192 1.552V6.56C4.192 6.79467 4.144 7.008 4.048 7.2C3.952 7.38133 3.824 7.536 3.664 7.664L4.688 11.264H3.152L2.24 8.048H1.76V11.264H0.24V1.552H0ZM2.592 1.552H1.76V6.56H2.592C2.64533 6.56 2.672 6.53333 2.672 6.48V1.632C2.672 1.57867 2.64533 1.552 2.592 1.552ZM11.4075 9.84C11.4075 10.288 11.2688 10.6507 10.9915 10.928C10.7142 11.1947 10.3515 11.328 9.9035 11.328H8.7515C8.3035 11.328 7.94083 11.1947 7.6635 10.928C7.38617 10.6507 7.2475 10.288 7.2475 9.84V1.488C7.2475 1.04 7.38617 0.682667 7.6635 0.416001C7.94083 0.138667 8.3035 2.38419e-07 8.7515 2.38419e-07H9.9035C10.3515 2.38419e-07 10.7142 0.138667 10.9915 0.416001C11.2688 0.682667 11.4075 1.04 11.4075 1.488V9.84ZM8.8475 1.488C8.79417 1.488 8.7675 1.51467 8.7675 1.568V9.76C8.7675 9.81333 8.79417 9.84 8.8475 9.84H9.8075C9.86083 9.84 9.8875 9.81333 9.8875 9.76V1.568C9.8875 1.51467 9.86083 1.488 9.8075 1.488H8.8475ZM15.9644 8.064V9.76C15.9644 9.81333 15.991 9.84 16.0444 9.84H16.6844C16.7377 9.84 16.7644 9.81333 16.7644 9.76V6.88L15.5004 6.32C15.4044 6.288 15.271 6.23467 15.1004 6.16C14.9297 6.07467 14.775 5.952 14.6364 5.792C14.5084 5.632 14.4444 5.41333 14.4444 5.136V1.488C14.4444 1.04 14.583 0.682667 14.8604 0.416001C15.1377 0.138667 15.5004 2.38419e-07 15.9484 2.38419e-07H16.7804C17.2284 2.38419e-07 17.591 0.138667 17.8684 0.416001C18.1457 0.682667 18.2844 1.04 18.2844 1.488V3.856L16.7644 3.728V1.568C16.7644 1.51467 16.7377 1.488 16.6844 1.488H16.0444C15.991 1.488 15.9644 1.51467 15.9644 1.568V4.912L17.2284 5.472C17.3244 5.51467 17.4577 5.57333 17.6284 5.648C17.799 5.72267 17.9484 5.84 18.0764 6C18.215 6.16 18.2844 6.37867 18.2844 6.656V9.84C18.2844 10.288 18.1457 10.6507 17.8684 10.928C17.591 11.1947 17.2284 11.328 16.7804 11.328H15.9484C15.5004 11.328 15.1377 11.1947 14.8604 10.928C14.583 10.6507 14.4444 10.288 14.4444 9.84V8.064H15.9644Z" fill="white"/>
</svg>
