<svg width="1779" height="1566" viewBox="0 0 1779 1566" fill="none" xmlns="http://www.w3.org/2000/svg">
<rect width="1779" height="1566" fill="white" fill-opacity="0.13"/>
<path d="M23 915V936.2C23 936.867 23.3333 937.2 24 937.2H32C32.6667 937.2 33 936.867 33 936.2V900.2L17.2 893.2C16 892.8 14.3333 892.133 12.2 891.2C10.0667 890.133 8.13333 888.6 6.4 886.6C4.8 884.6 4 881.867 4 878.4V832.8C4 827.2 5.73333 822.733 9.2 819.4C12.6667 815.933 17.2 814.2 22.8 814.2H33.2C38.8 814.2 43.3333 815.933 46.8 819.4C50.2667 822.733 52 827.2 52 832.8V862.4L33 860.8V833.8C33 833.133 32.6667 832.8 32 832.8H24C23.3333 832.8 23 833.133 23 833.8V875.6L38.8 882.6C40 883.133 41.6667 883.867 43.8 884.8C45.9333 885.733 47.8 887.2 49.4 889.2C51.1333 891.2 52 893.933 52 897.4V937.2C52 942.8 50.2667 947.333 46.8 950.8C43.3333 954.133 38.8 955.8 33.2 955.8H22.8C17.2 955.8 12.6667 954.133 9.2 950.8C5.73333 947.333 4 942.8 4 937.2V915H23ZM141.055 937.2C141.055 942.8 139.321 947.333 135.855 950.8C132.388 954.133 127.855 955.8 122.255 955.8H109.855C104.255 955.8 99.7214 954.133 96.2547 950.8C92.788 947.333 91.0547 942.8 91.0547 937.2V833.6H88.0547L90.0547 815H110.055V936.2C110.055 936.867 110.388 937.2 111.055 937.2H121.055C121.721 937.2 122.055 936.867 122.055 936.2V815.4H141.055V937.2ZM198.039 915V936.2C198.039 936.867 198.372 937.2 199.039 937.2H207.039C207.706 937.2 208.039 936.867 208.039 936.2V900.2L192.239 893.2C191.039 892.8 189.372 892.133 187.239 891.2C185.106 890.133 183.172 888.6 181.439 886.6C179.839 884.6 179.039 881.867 179.039 878.4V832.8C179.039 827.2 180.772 822.733 184.239 819.4C187.706 815.933 192.239 814.2 197.839 814.2H208.239C213.839 814.2 218.372 815.933 221.839 819.4C225.306 822.733 227.039 827.2 227.039 832.8V862.4L208.039 860.8V833.8C208.039 833.133 207.706 832.8 207.039 832.8H199.039C198.372 832.8 198.039 833.133 198.039 833.8V875.6L213.839 882.6C215.039 883.133 216.706 883.867 218.839 884.8C220.972 885.733 222.839 887.2 224.439 889.2C226.172 891.2 227.039 893.933 227.039 897.4V937.2C227.039 942.8 225.306 947.333 221.839 950.8C218.372 954.133 213.839 955.8 208.239 955.8H197.839C192.239 955.8 187.706 954.133 184.239 950.8C180.772 947.333 179.039 942.8 179.039 937.2V915H198.039ZM285.094 815V875.4H296.494V815H315.494V955H296.494V894H285.094V955H266.094V833.6H263.094L265.094 815H285.094ZM370.492 955H351.492L362.292 833.6H358.692L360.692 815H397.292L409.692 955H390.692L388.492 931H372.692L370.492 955ZM374.292 912.4H386.892L380.692 842.8L374.292 912.4ZM487.602 815H506.602V955H487.602L465.602 869.4V955H446.602V833.6H443.602L445.602 815H466.602L488.802 904L487.602 815ZM543.57 833.6V815H598.57V833.6H580.57V955H561.57V833.6H543.57Z" fill="white"/>
</svg>
