<svg width="1520" height="720" viewBox="0 0 1520 720" fill="none" xmlns="http://www.w3.org/2000/svg">
<mask id="path-1-outside-1_18_4" maskUnits="userSpaceOnUse" x="364" y="190" width="717" height="172" fill="black">
<rect fill="white" x="364" y="190" width="717" height="172"/>
<path d="M388.6 312V337.44C388.6 338.24 389 338.64 389.8 338.64H399.4C400.2 338.64 400.6 338.24 400.6 337.44V294.24L381.64 285.84C380.2 285.36 378.2 284.56 375.64 283.44C373.08 282.16 370.76 280.32 368.68 277.92C366.76 275.52 365.8 272.24 365.8 268.08V213.36C365.8 206.64 367.88 201.28 372.04 197.28C376.2 193.12 381.64 191.04 388.36 191.04H400.84C407.56 191.04 413 193.12 417.16 197.28C421.32 201.28 423.4 206.64 423.4 213.36V248.88L400.6 246.96V214.56C400.6 213.76 400.2 213.36 399.4 213.36H389.8C389 213.36 388.6 213.76 388.6 214.56V264.72L407.56 273.12C409 273.76 411 274.64 413.56 275.76C416.12 276.88 418.36 278.64 420.28 281.04C422.36 283.44 423.4 286.72 423.4 290.88V338.64C423.4 345.36 421.32 350.8 417.16 354.96C413 358.96 407.56 360.96 400.84 360.96H388.36C381.64 360.96 376.2 358.96 372.04 354.96C367.88 350.8 365.8 345.36 365.8 338.64V312H388.6ZM530.266 338.64C530.266 345.36 528.186 350.8 524.026 354.96C519.866 358.96 514.426 360.96 507.706 360.96H492.826C486.106 360.96 480.666 358.96 476.506 354.96C472.346 350.8 470.266 345.36 470.266 338.64V214.32H466.666L469.066 192H493.066V337.44C493.066 338.24 493.466 338.64 494.266 338.64H506.266C507.066 338.64 507.466 338.24 507.466 337.44V192.48H530.266V338.64ZM598.647 312V337.44C598.647 338.24 599.047 338.64 599.847 338.64H609.447C610.247 338.64 610.647 338.24 610.647 337.44V294.24L591.687 285.84C590.247 285.36 588.247 284.56 585.687 283.44C583.127 282.16 580.807 280.32 578.727 277.92C576.807 275.52 575.847 272.24 575.847 268.08V213.36C575.847 206.64 577.927 201.28 582.087 197.28C586.247 193.12 591.687 191.04 598.407 191.04H610.887C617.607 191.04 623.047 193.12 627.207 197.28C631.367 201.28 633.447 206.64 633.447 213.36V248.88L610.647 246.96V214.56C610.647 213.76 610.247 213.36 609.447 213.36H599.847C599.047 213.36 598.647 213.76 598.647 214.56V264.72L617.607 273.12C619.047 273.76 621.047 274.64 623.607 275.76C626.167 276.88 628.407 278.64 630.327 281.04C632.407 283.44 633.447 286.72 633.447 290.88V338.64C633.447 345.36 631.367 350.8 627.207 354.96C623.047 358.96 617.607 360.96 610.887 360.96H598.407C591.687 360.96 586.247 358.96 582.087 354.96C577.927 350.8 575.847 345.36 575.847 338.64V312H598.647ZM703.113 192V264.48H716.793V192H739.593V360H716.793V286.8H703.113V360H680.313V214.32H676.713L679.113 192H703.113ZM805.591 360H782.791L795.751 214.32H791.431L793.831 192H837.751L852.631 360H829.831L827.191 331.2H808.231L805.591 360ZM810.151 308.88H825.271L817.831 225.36L810.151 308.88ZM946.122 192H968.922V360H946.122L919.722 257.28V360H896.922V214.32H893.322L895.722 192H920.922L947.562 298.8L946.122 192ZM1013.28 214.32V192H1079.28V214.32H1057.68V360H1034.88V214.32H1013.28Z"/>
</mask>
<path d="M388.6 312V337.44C388.6 338.24 389 338.64 389.8 338.64H399.4C400.2 338.64 400.6 338.24 400.6 337.44V294.24L381.64 285.84C380.2 285.36 378.2 284.56 375.64 283.44C373.08 282.16 370.76 280.32 368.68 277.92C366.76 275.52 365.8 272.24 365.8 268.08V213.36C365.8 206.64 367.88 201.28 372.04 197.28C376.2 193.12 381.64 191.04 388.36 191.04H400.84C407.56 191.04 413 193.12 417.16 197.28C421.32 201.28 423.4 206.64 423.4 213.36V248.88L400.6 246.96V214.56C400.6 213.76 400.2 213.36 399.4 213.36H389.8C389 213.36 388.6 213.76 388.6 214.56V264.72L407.56 273.12C409 273.76 411 274.64 413.56 275.76C416.12 276.88 418.36 278.64 420.28 281.04C422.36 283.44 423.4 286.72 423.4 290.88V338.64C423.4 345.36 421.32 350.8 417.16 354.96C413 358.96 407.56 360.96 400.84 360.96H388.36C381.64 360.96 376.2 358.96 372.04 354.96C367.88 350.8 365.8 345.36 365.8 338.64V312H388.6ZM530.266 338.64C530.266 345.36 528.186 350.8 524.026 354.96C519.866 358.96 514.426 360.96 507.706 360.96H492.826C486.106 360.96 480.666 358.96 476.506 354.96C472.346 350.8 470.266 345.36 470.266 338.64V214.32H466.666L469.066 192H493.066V337.44C493.066 338.24 493.466 338.64 494.266 338.64H506.266C507.066 338.64 507.466 338.24 507.466 337.44V192.48H530.266V338.64ZM598.647 312V337.44C598.647 338.24 599.047 338.64 599.847 338.64H609.447C610.247 338.64 610.647 338.24 610.647 337.44V294.24L591.687 285.84C590.247 285.36 588.247 284.56 585.687 283.44C583.127 282.16 580.807 280.32 578.727 277.92C576.807 275.52 575.847 272.24 575.847 268.08V213.36C575.847 206.64 577.927 201.28 582.087 197.28C586.247 193.12 591.687 191.04 598.407 191.04H610.887C617.607 191.04 623.047 193.12 627.207 197.28C631.367 201.28 633.447 206.64 633.447 213.36V248.88L610.647 246.96V214.56C610.647 213.76 610.247 213.36 609.447 213.36H599.847C599.047 213.36 598.647 213.76 598.647 214.56V264.72L617.607 273.12C619.047 273.76 621.047 274.64 623.607 275.76C626.167 276.88 628.407 278.64 630.327 281.04C632.407 283.44 633.447 286.72 633.447 290.88V338.64C633.447 345.36 631.367 350.8 627.207 354.96C623.047 358.96 617.607 360.96 610.887 360.96H598.407C591.687 360.96 586.247 358.96 582.087 354.96C577.927 350.8 575.847 345.36 575.847 338.64V312H598.647ZM703.113 192V264.48H716.793V192H739.593V360H716.793V286.8H703.113V360H680.313V214.32H676.713L679.113 192H703.113ZM805.591 360H782.791L795.751 214.32H791.431L793.831 192H837.751L852.631 360H829.831L827.191 331.2H808.231L805.591 360ZM810.151 308.88H825.271L817.831 225.36L810.151 308.88ZM946.122 192H968.922V360H946.122L919.722 257.28V360H896.922V214.32H893.322L895.722 192H920.922L947.562 298.8L946.122 192ZM1013.28 214.32V192H1079.28V214.32H1057.68V360H1034.88V214.32H1013.28Z" fill="white"/>
<path d="M388.6 312H389.6V311H388.6V312ZM400.6 294.24H401.6V293.589L401.005 293.326L400.6 294.24ZM381.64 285.84L382.045 284.926L382.001 284.906L381.956 284.891L381.64 285.84ZM375.64 283.44L375.193 284.334L375.216 284.346L375.239 284.356L375.64 283.44ZM368.68 277.92L367.899 278.545L367.911 278.56L367.924 278.575L368.68 277.92ZM372.04 197.28L372.733 198.001L372.74 197.994L372.747 197.987L372.04 197.28ZM417.16 197.28L416.453 197.987L416.46 197.994L416.467 198.001L417.16 197.28ZM423.4 248.88L423.316 249.876L424.4 249.968V248.88H423.4ZM400.6 246.96H399.6V247.879L400.516 247.956L400.6 246.96ZM388.6 264.72H387.6V265.371L388.195 265.634L388.6 264.72ZM407.56 273.12L407.966 272.206L407.965 272.206L407.56 273.12ZM420.28 281.04L419.499 281.665L419.511 281.68L419.524 281.695L420.28 281.04ZM417.16 354.96L417.853 355.681L417.86 355.674L417.867 355.667L417.16 354.96ZM372.04 354.96L371.333 355.667L371.34 355.674L371.347 355.681L372.04 354.96ZM365.8 312V311H364.8V312H365.8ZM388.6 312H387.6V337.44H388.6H389.6V312H388.6ZM388.6 337.44H387.6C387.6 337.994 387.739 338.593 388.193 339.047C388.647 339.501 389.246 339.64 389.8 339.64V338.64V337.64C389.554 337.64 389.553 337.579 389.607 337.633C389.661 337.687 389.6 337.686 389.6 337.44H388.6ZM389.8 338.64V339.64H399.4V338.64V337.64H389.8V338.64ZM399.4 338.64V339.64C399.954 339.64 400.553 339.501 401.007 339.047C401.461 338.593 401.6 337.994 401.6 337.44H400.6H399.6C399.6 337.686 399.539 337.687 399.593 337.633C399.647 337.579 399.646 337.64 399.4 337.64V338.64ZM400.6 337.44H401.6V294.24H400.6H399.6V337.44H400.6ZM400.6 294.24L401.005 293.326L382.045 284.926L381.64 285.84L381.235 286.754L400.195 295.154L400.6 294.24ZM381.64 285.84L381.956 284.891C380.559 284.426 378.592 283.64 376.041 282.524L375.64 283.44L375.239 284.356C377.808 285.48 379.841 286.294 381.324 286.789L381.64 285.84ZM375.64 283.44L376.087 282.546C373.657 281.33 371.439 279.577 369.436 277.265L368.68 277.92L367.924 278.575C370.081 281.063 372.503 282.99 375.193 284.334L375.64 283.44ZM368.68 277.92L369.461 277.295C367.726 275.126 366.8 272.093 366.8 268.08H365.8H364.8C364.8 272.387 365.794 275.914 367.899 278.545L368.68 277.92ZM365.8 268.08H366.8V213.36H365.8H364.8V268.08H365.8ZM365.8 213.36H366.8C366.8 206.863 368.802 201.781 372.733 198.001L372.04 197.28L371.347 196.559C366.958 200.779 364.8 206.417 364.8 213.36H365.8ZM372.04 197.28L372.747 197.987C376.692 194.042 381.864 192.04 388.36 192.04V191.04V190.04C381.416 190.04 375.708 192.198 371.333 196.573L372.04 197.28ZM388.36 191.04V192.04H400.84V191.04V190.04H388.36V191.04ZM400.84 191.04V192.04C407.336 192.04 412.508 194.042 416.453 197.987L417.16 197.28L417.867 196.573C413.492 192.198 407.784 190.04 400.84 190.04V191.04ZM417.16 197.28L416.467 198.001C420.398 201.781 422.4 206.863 422.4 213.36H423.4H424.4C424.4 206.417 422.242 200.779 417.853 196.559L417.16 197.28ZM423.4 213.36H422.4V248.88H423.4H424.4V213.36H423.4ZM423.4 248.88L423.484 247.884L400.684 245.964L400.6 246.96L400.516 247.956L423.316 249.876L423.4 248.88ZM400.6 246.96H401.6V214.56H400.6H399.6V246.96H400.6ZM400.6 214.56H401.6C401.6 214.006 401.461 213.407 401.007 212.953C400.553 212.499 399.954 212.36 399.4 212.36V213.36V214.36C399.646 214.36 399.647 214.421 399.593 214.367C399.539 214.313 399.6 214.314 399.6 214.56H400.6ZM399.4 213.36V212.36H389.8V213.36V214.36H399.4V213.36ZM389.8 213.36V212.36C389.246 212.36 388.647 212.499 388.193 212.953C387.739 213.407 387.6 214.006 387.6 214.56H388.6H389.6C389.6 214.314 389.661 214.313 389.607 214.367C389.553 214.421 389.554 214.36 389.8 214.36V213.36ZM388.6 214.56H387.6V264.72H388.6H389.6V214.56H388.6ZM388.6 264.72L388.195 265.634L407.155 274.034L407.56 273.12L407.965 272.206L389.005 263.806L388.6 264.72ZM407.56 273.12L407.154 274.034C408.596 274.675 410.599 275.556 413.159 276.676L413.56 275.76L413.961 274.844C411.401 273.724 409.404 272.845 407.966 272.206L407.56 273.12ZM413.56 275.76L413.159 276.676C415.556 277.725 417.67 279.378 419.499 281.665L420.28 281.04L421.061 280.415C419.05 277.902 416.684 276.035 413.961 274.844L413.56 275.76ZM420.28 281.04L419.524 281.695C421.403 283.863 422.4 286.885 422.4 290.88H423.4H424.4C424.4 286.555 423.317 283.017 421.036 280.385L420.28 281.04ZM423.4 290.88H422.4V338.64H423.4H424.4V290.88H423.4ZM423.4 338.64H422.4C422.4 345.136 420.398 350.308 416.453 354.253L417.16 354.96L417.867 355.667C422.242 351.292 424.4 345.584 424.4 338.64H423.4ZM417.16 354.96L416.467 354.239C412.524 358.031 407.347 359.96 400.84 359.96V360.96V361.96C407.773 361.96 413.476 359.889 417.853 355.681L417.16 354.96ZM400.84 360.96V359.96H388.36V360.96V361.96H400.84V360.96ZM388.36 360.96V359.96C381.853 359.96 376.676 358.031 372.733 354.239L372.04 354.96L371.347 355.681C375.724 359.889 381.427 361.96 388.36 361.96V360.96ZM372.04 354.96L372.747 354.253C368.802 350.308 366.8 345.136 366.8 338.64H365.8H364.8C364.8 345.584 366.958 351.292 371.333 355.667L372.04 354.96ZM365.8 338.64H366.8V312H365.8H364.8V338.64H365.8ZM365.8 312V313H388.6V312V311H365.8V312ZM524.026 354.96L524.719 355.681L524.726 355.674L524.733 355.667L524.026 354.96ZM476.506 354.96L475.799 355.667L475.805 355.674L475.813 355.681L476.506 354.96ZM470.266 214.32H471.266V213.32H470.266V214.32ZM466.666 214.32L465.671 214.213L465.552 215.32H466.666V214.32ZM469.066 192V191H468.167L468.071 191.893L469.066 192ZM493.066 192H494.066V191H493.066V192ZM507.466 192.48V191.48H506.466V192.48H507.466ZM530.266 192.48H531.266V191.48H530.266V192.48ZM530.266 338.64H529.266C529.266 345.136 527.264 350.308 523.319 354.253L524.026 354.96L524.733 355.667C529.107 351.292 531.266 345.584 531.266 338.64H530.266ZM524.026 354.96L523.333 354.239C519.389 358.031 514.213 359.96 507.706 359.96V360.96V361.96C514.638 361.96 520.342 359.889 524.719 355.681L524.026 354.96ZM507.706 360.96V359.96H492.826V360.96V361.96H507.706V360.96ZM492.826 360.96V359.96C486.318 359.96 481.142 358.031 477.199 354.239L476.506 354.96L475.813 355.681C480.189 359.889 485.893 361.96 492.826 361.96V360.96ZM476.506 354.96L477.213 354.253C473.267 350.308 471.266 345.136 471.266 338.64H470.266H469.266C469.266 345.584 471.424 351.292 475.799 355.667L476.506 354.96ZM470.266 338.64H471.266V214.32H470.266H469.266V338.64H470.266ZM470.266 214.32V213.32H466.666V214.32V215.32H470.266V214.32ZM466.666 214.32L467.66 214.427L470.06 192.107L469.066 192L468.071 191.893L465.671 214.213L466.666 214.32ZM469.066 192V193H493.066V192V191H469.066V192ZM493.066 192H492.066V337.44H493.066H494.066V192H493.066ZM493.066 337.44H492.066C492.066 337.994 492.205 338.593 492.659 339.047C493.112 339.501 493.711 339.64 494.266 339.64V338.64V337.64C494.02 337.64 494.019 337.579 494.073 337.633C494.126 337.687 494.066 337.686 494.066 337.44H493.066ZM494.266 338.64V339.64H506.266V338.64V337.64H494.266V338.64ZM506.266 338.64V339.64C506.82 339.64 507.419 339.501 507.873 339.047C508.326 338.593 508.466 337.994 508.466 337.44H507.466H506.466C506.466 337.686 506.405 337.687 506.459 337.633C506.512 337.579 506.511 337.64 506.266 337.64V338.64ZM507.466 337.44H508.466V192.48H507.466H506.466V337.44H507.466ZM507.466 192.48V193.48H530.266V192.48V191.48H507.466V192.48ZM530.266 192.48H529.266V338.64H530.266H531.266V192.48H530.266ZM598.647 312H599.647V311H598.647V312ZM610.647 294.24H611.647V293.589L611.052 293.326L610.647 294.24ZM591.687 285.84L592.092 284.926L592.048 284.906L592.003 284.891L591.687 285.84ZM585.687 283.44L585.24 284.334L585.263 284.346L585.286 284.356L585.687 283.44ZM578.727 277.92L577.946 278.545L577.958 278.56L577.971 278.575L578.727 277.92ZM582.087 197.28L582.78 198.001L582.787 197.994L582.794 197.987L582.087 197.28ZM627.207 197.28L626.5 197.987L626.507 197.994L626.514 198.001L627.207 197.28ZM633.447 248.88L633.363 249.876L634.447 249.968V248.88H633.447ZM610.647 246.96H609.647V247.879L610.563 247.956L610.647 246.96ZM598.647 264.72H597.647V265.371L598.242 265.634L598.647 264.72ZM617.607 273.12L618.013 272.206L618.012 272.206L617.607 273.12ZM630.327 281.04L629.546 281.665L629.558 281.68L629.571 281.695L630.327 281.04ZM627.207 354.96L627.9 355.681L627.907 355.674L627.914 355.667L627.207 354.96ZM582.087 354.96L581.38 355.667L581.387 355.674L581.394 355.681L582.087 354.96ZM575.847 312V311H574.847V312H575.847ZM598.647 312H597.647V337.44H598.647H599.647V312H598.647ZM598.647 337.44H597.647C597.647 337.994 597.786 338.593 598.24 339.047C598.693 339.501 599.293 339.64 599.847 339.64V338.64V337.64C599.601 337.64 599.6 337.579 599.654 337.633C599.708 337.687 599.647 337.686 599.647 337.44H598.647ZM599.847 338.64V339.64H609.447V338.64V337.64H599.847V338.64ZM609.447 338.64V339.64C610.001 339.64 610.6 339.501 611.054 339.047C611.508 338.593 611.647 337.994 611.647 337.44H610.647H609.647C609.647 337.686 609.586 337.687 609.64 337.633C609.693 337.579 609.693 337.64 609.447 337.64V338.64ZM610.647 337.44H611.647V294.24H610.647H609.647V337.44H610.647ZM610.647 294.24L611.052 293.326L592.092 284.926L591.687 285.84L591.282 286.754L610.242 295.154L610.647 294.24ZM591.687 285.84L592.003 284.891C590.606 284.426 588.639 283.64 586.088 282.524L585.687 283.44L585.286 284.356C587.855 285.48 589.887 286.294 591.371 286.789L591.687 285.84ZM585.687 283.44L586.134 282.546C583.704 281.33 581.486 279.577 579.483 277.265L578.727 277.92L577.971 278.575C580.128 281.063 582.55 282.99 585.24 284.334L585.687 283.44ZM578.727 277.92L579.508 277.295C577.773 275.126 576.847 272.093 576.847 268.08H575.847H574.847C574.847 272.387 575.841 275.914 577.946 278.545L578.727 277.92ZM575.847 268.08H576.847V213.36H575.847H574.847V268.08H575.847ZM575.847 213.36H576.847C576.847 206.863 578.849 201.781 582.78 198.001L582.087 197.28L581.394 196.559C577.005 200.779 574.847 206.417 574.847 213.36H575.847ZM582.087 197.28L582.794 197.987C586.739 194.042 591.911 192.04 598.407 192.04V191.04V190.04C591.463 190.04 585.754 192.198 581.38 196.573L582.087 197.28ZM598.407 191.04V192.04H610.887V191.04V190.04H598.407V191.04ZM610.887 191.04V192.04C617.383 192.04 622.554 194.042 626.5 197.987L627.207 197.28L627.914 196.573C623.539 192.198 617.831 190.04 610.887 190.04V191.04ZM627.207 197.28L626.514 198.001C630.445 201.781 632.447 206.863 632.447 213.36H633.447H634.447C634.447 206.417 632.289 200.779 627.9 196.559L627.207 197.28ZM633.447 213.36H632.447V248.88H633.447H634.447V213.36H633.447ZM633.447 248.88L633.531 247.884L610.731 245.964L610.647 246.96L610.563 247.956L633.363 249.876L633.447 248.88ZM610.647 246.96H611.647V214.56H610.647H609.647V246.96H610.647ZM610.647 214.56H611.647C611.647 214.006 611.508 213.407 611.054 212.953C610.6 212.499 610.001 212.36 609.447 212.36V213.36V214.36C609.693 214.36 609.693 214.421 609.64 214.367C609.586 214.313 609.647 214.314 609.647 214.56H610.647ZM609.447 213.36V212.36H599.847V213.36V214.36H609.447V213.36ZM599.847 213.36V212.36C599.293 212.36 598.693 212.499 598.24 212.953C597.786 213.407 597.647 214.006 597.647 214.56H598.647H599.647C599.647 214.314 599.708 214.313 599.654 214.367C599.6 214.421 599.601 214.36 599.847 214.36V213.36ZM598.647 214.56H597.647V264.72H598.647H599.647V214.56H598.647ZM598.647 264.72L598.242 265.634L617.202 274.034L617.607 273.12L618.012 272.206L599.052 263.806L598.647 264.72ZM617.607 273.12L617.201 274.034C618.643 274.675 620.645 275.556 623.206 276.676L623.607 275.76L624.008 274.844C621.448 273.724 619.45 272.845 618.013 272.206L617.607 273.12ZM623.607 275.76L623.206 276.676C625.603 277.725 627.717 279.378 629.546 281.665L630.327 281.04L631.108 280.415C629.097 277.902 626.731 276.035 624.008 274.844L623.607 275.76ZM630.327 281.04L629.571 281.695C631.45 283.863 632.447 286.885 632.447 290.88H633.447H634.447C634.447 286.555 633.364 283.017 631.083 280.385L630.327 281.04ZM633.447 290.88H632.447V338.64H633.447H634.447V290.88H633.447ZM633.447 338.64H632.447C632.447 345.136 630.445 350.308 626.5 354.253L627.207 354.96L627.914 355.667C632.289 351.292 634.447 345.584 634.447 338.64H633.447ZM627.207 354.96L626.514 354.239C622.571 358.031 617.394 359.96 610.887 359.96V360.96V361.96C617.82 361.96 623.523 359.889 627.9 355.681L627.207 354.96ZM610.887 360.96V359.96H598.407V360.96V361.96H610.887V360.96ZM598.407 360.96V359.96C591.9 359.96 586.723 358.031 582.78 354.239L582.087 354.96L581.394 355.681C585.771 359.889 591.474 361.96 598.407 361.96V360.96ZM582.087 354.96L582.794 354.253C578.849 350.308 576.847 345.136 576.847 338.64H575.847H574.847C574.847 345.584 577.005 351.292 581.38 355.667L582.087 354.96ZM575.847 338.64H576.847V312H575.847H574.847V338.64H575.847ZM575.847 312V313H598.647V312V311H575.847V312ZM703.113 192H704.113V191H703.113V192ZM703.113 264.48H702.113V265.48H703.113V264.48ZM716.793 264.48V265.48H717.793V264.48H716.793ZM716.793 192V191H715.793V192H716.793ZM739.593 192H740.593V191H739.593V192ZM739.593 360V361H740.593V360H739.593ZM716.793 360H715.793V361H716.793V360ZM716.793 286.8H717.793V285.8H716.793V286.8ZM703.113 286.8V285.8H702.113V286.8H703.113ZM703.113 360V361H704.113V360H703.113ZM680.313 360H679.313V361H680.313V360ZM680.313 214.32H681.313V213.32H680.313V214.32ZM676.713 214.32L675.718 214.213L675.599 215.32H676.713V214.32ZM679.113 192V191H678.214L678.118 191.893L679.113 192ZM703.113 192H702.113V264.48H703.113H704.113V192H703.113ZM703.113 264.48V265.48H716.793V264.48V263.48H703.113V264.48ZM716.793 264.48H717.793V192H716.793H715.793V264.48H716.793ZM716.793 192V193H739.593V192V191H716.793V192ZM739.593 192H738.593V360H739.593H740.593V192H739.593ZM739.593 360V359H716.793V360V361H739.593V360ZM716.793 360H717.793V286.8H716.793H715.793V360H716.793ZM716.793 286.8V285.8H703.113V286.8V287.8H716.793V286.8ZM703.113 286.8H702.113V360H703.113H704.113V286.8H703.113ZM703.113 360V359H680.313V360V361H703.113V360ZM680.313 360H681.313V214.32H680.313H679.313V360H680.313ZM680.313 214.32V213.32H676.713V214.32V215.32H680.313V214.32ZM676.713 214.32L677.707 214.427L680.107 192.107L679.113 192L678.118 191.893L675.718 214.213L676.713 214.32ZM679.113 192V193H703.113V192V191H679.113V192ZM805.591 360V361H806.503L806.586 360.091L805.591 360ZM782.791 360L781.795 359.911L781.698 361H782.791V360ZM795.751 214.32L796.747 214.409L796.844 213.32H795.751V214.32ZM791.431 214.32L790.436 214.213L790.317 215.32H791.431V214.32ZM793.831 192V191H792.932L792.836 191.893L793.831 192ZM837.751 192L838.747 191.912L838.666 191H837.751V192ZM852.631 360V361H853.723L853.627 359.912L852.631 360ZM829.831 360L828.835 360.091L828.918 361H829.831V360ZM827.191 331.2L828.186 331.109L828.103 330.2H827.191V331.2ZM808.231 331.2V330.2H807.318L807.235 331.109L808.231 331.2ZM810.151 308.88L809.155 308.788L809.054 309.88H810.151V308.88ZM825.271 308.88V309.88H826.364L826.267 308.791L825.271 308.88ZM817.831 225.36L818.827 225.271L816.835 225.268L817.831 225.36ZM805.591 360V359H782.791V360V361H805.591V360ZM782.791 360L783.787 360.089L796.747 214.409L795.751 214.32L794.755 214.231L781.795 359.911L782.791 360ZM795.751 214.32V213.32H791.431V214.32V215.32H795.751V214.32ZM791.431 214.32L792.425 214.427L794.825 192.107L793.831 192L792.836 191.893L790.436 214.213L791.431 214.32ZM793.831 192V193H837.751V192V191H793.831V192ZM837.751 192L836.755 192.088L851.635 360.088L852.631 360L853.627 359.912L838.747 191.912L837.751 192ZM852.631 360V359H829.831V360V361H852.631V360ZM829.831 360L830.826 359.909L828.186 331.109L827.191 331.2L826.195 331.291L828.835 360.091L829.831 360ZM827.191 331.2V330.2H808.231V331.2V332.2H827.191V331.2ZM808.231 331.2L807.235 331.109L804.595 359.909L805.591 360L806.586 360.091L809.226 331.291L808.231 331.2ZM810.151 308.88V309.88H825.271V308.88V307.88H810.151V308.88ZM825.271 308.88L826.267 308.791L818.827 225.271L817.831 225.36L816.835 225.449L824.275 308.969L825.271 308.88ZM817.831 225.36L816.835 225.268L809.155 308.788L810.151 308.88L811.146 308.972L818.826 225.452L817.831 225.36ZM946.122 192V191H945.108L945.122 192.013L946.122 192ZM968.922 192H969.922V191H968.922V192ZM968.922 360V361H969.922V360H968.922ZM946.122 360L945.153 360.249L945.346 361H946.122V360ZM919.722 257.28L920.69 257.031L918.722 257.28H919.722ZM919.722 360V361H920.722V360H919.722ZM896.922 360H895.922V361H896.922V360ZM896.922 214.32H897.922V213.32H896.922V214.32ZM893.322 214.32L892.328 214.213L892.209 215.32H893.322V214.32ZM895.722 192V191H894.824L894.728 191.893L895.722 192ZM920.922 192L921.892 191.758L921.703 191H920.922V192ZM947.562 298.8L946.592 299.042L948.562 298.787L947.562 298.8ZM946.122 192V193H968.922V192V191H946.122V192ZM968.922 192H967.922V360H968.922H969.922V192H968.922ZM968.922 360V359H946.122V360V361H968.922V360ZM946.122 360L947.09 359.751L920.69 257.031L919.722 257.28L918.753 257.529L945.153 360.249L946.122 360ZM919.722 257.28H918.722V360H919.722H920.722V257.28H919.722ZM919.722 360V359H896.922V360V361H919.722V360ZM896.922 360H897.922V214.32H896.922H895.922V360H896.922ZM896.922 214.32V213.32H893.322V214.32V215.32H896.922V214.32ZM893.322 214.32L894.316 214.427L896.716 192.107L895.722 192L894.728 191.893L892.328 214.213L893.322 214.32ZM895.722 192V193H920.922V192V191H895.722V192ZM920.922 192L919.952 192.242L946.592 299.042L947.562 298.8L948.532 298.558L921.892 191.758L920.922 192ZM947.562 298.8L948.562 298.787L947.122 191.987L946.122 192L945.122 192.013L946.562 298.813L947.562 298.8ZM1013.28 214.32H1012.28V215.32H1013.28V214.32ZM1013.28 192V191H1012.28V192H1013.28ZM1079.28 192H1080.28V191H1079.28V192ZM1079.28 214.32V215.32H1080.28V214.32H1079.28ZM1057.68 214.32V213.32H1056.68V214.32H1057.68ZM1057.68 360V361H1058.68V360H1057.68ZM1034.88 360H1033.88V361H1034.88V360ZM1034.88 214.32H1035.88V213.32H1034.88V214.32ZM1013.28 214.32H1014.28V192H1013.28H1012.28V214.32H1013.28ZM1013.28 192V193H1079.28V192V191H1013.28V192ZM1079.28 192H1078.28V214.32H1079.28H1080.28V192H1079.28ZM1079.28 214.32V213.32H1057.68V214.32V215.32H1079.28V214.32ZM1057.68 214.32H1056.68V360H1057.68H1058.68V214.32H1057.68ZM1057.68 360V359H1034.88V360V361H1057.68V360ZM1034.88 360H1035.88V214.32H1034.88H1033.88V360H1034.88ZM1034.88 214.32V213.32H1013.28V214.32V215.32H1034.88V214.32Z" fill="#FF0000" mask="url(#path-1-outside-1_18_4)"/>
</svg>
