<svg width="2000" height="2000" viewBox="0 0 2000 2000" fill="none" xmlns="http://www.w3.org/2000/svg">
<rect width="2000" height="2000" fill="white" fill-opacity="0.13"/>
<path d="M717.4 779V769.4H767.8V742.64L716.2 738.68V704.6L725.8 695H777.4V704.6H727V730.16L778.6 734.12V769.4L769 779H717.4ZM810.958 769.4V695H821.758V769.4H863.758V695H874.558V769.4L864.958 779H820.558L810.958 769.4ZM908.205 779V769.4H958.605V742.64L907.005 738.68V704.6L916.605 695H968.205V704.6H917.805V730.16L969.405 734.12V769.4L959.805 779H908.205ZM1001.76 779V695H1012.56V731H1056.96V695H1067.76V779H1056.96V740.6H1012.56V779H1001.76ZM1095.35 779L1117.19 695H1146.71L1168.55 779H1157.51L1151.99 757.4H1111.91L1106.39 779H1095.35ZM1114.31 748.04H1149.59L1138.43 704.36H1125.47L1114.31 748.04ZM1196.2 779V695H1211.56L1252.6 766.4V695H1263.4V779H1248.04L1207 707.6V779H1196.2ZM1316.76 779V704.6H1290.96V695H1353.36V704.6H1327.56V779H1316.76Z" fill="white"/>
</svg>
