<svg width="2000" height="2000" viewBox="0 0 2000 2000" fill="none" xmlns="http://www.w3.org/2000/svg">
<rect width="2000" height="2000" fill="white" fill-opacity="0.13"/>
<path d="M766.68 742V758.48C766.68 763.92 769.453 766.64 775 766.64H777.88C783.427 766.64 786.2 764.507 786.2 760.24L786.04 728.4L762.04 717.2C759.48 716.027 758.2 713.893 758.2 710.8V676.24C758.2 666.32 763.8 661.36 775 661.36H779.32C789.56 661.893 794.68 667.44 794.68 678V700.24L786.2 699.28V678C786.2 672.56 783.427 669.84 777.88 669.84H775C769.453 669.84 766.68 671.973 766.68 676.24L766.84 710.48L790.84 721.84C793.4 723.013 794.68 725.147 794.68 728.24V760.24C794.68 770.16 789.08 775.12 777.88 775.12H773.56C763.32 774.587 758.2 769.04 758.2 758.48V742H766.68ZM863.573 758.48C863.573 769.573 857.599 775.12 845.653 775.12H845.013C833.066 775.12 827.092 769.573 827.092 758.48V670.48H824.213L825.813 662H835.573V758.48C835.573 761.147 836.319 763.173 837.813 764.56C839.306 765.947 841.706 766.64 845.013 766.64H845.653C849.066 766.64 851.466 765.947 852.853 764.56C854.346 763.173 855.093 761.147 855.093 758.48V662H863.573V758.48ZM904.055 742V758.48C904.055 763.92 906.828 766.64 912.375 766.64H915.255C920.802 766.64 923.575 764.507 923.575 760.24L923.415 728.4L899.415 717.2C896.855 716.027 895.575 713.893 895.575 710.8V676.24C895.575 666.32 901.175 661.36 912.375 661.36H916.695C926.935 661.893 932.055 667.44 932.055 678V700.24L923.575 699.28V678C923.575 672.56 920.802 669.84 915.255 669.84H912.375C906.828 669.84 904.055 671.973 904.055 676.24L904.215 710.48L928.215 721.84C930.775 723.013 932.055 725.147 932.055 728.24V760.24C932.055 770.16 926.455 775.12 915.255 775.12H910.935C900.695 774.587 895.575 769.04 895.575 758.48V742H904.055ZM972.948 662V713.68H988.948V662H997.428V774H988.948V722.16H972.948V774H964.467V670.48H961.588L963.188 662H972.948ZM1028.58 774L1037.7 670.48H1035.62L1037.22 662H1056.9L1066.82 774H1059.46L1057.38 751.44H1038.02L1035.93 774H1028.58ZM1038.66 742.96H1056.74L1050.18 670.48H1045.22L1038.66 742.96ZM1097.78 774V670.48H1094.9L1096.5 662H1111.22L1131.06 741.84V662H1139.54V774H1131.06L1106.26 675.44V774H1097.78ZM1207.74 662V670.48H1192.38V774H1183.9V670.48H1168.38V662H1207.74Z" fill="white"/>
</svg>
